# xmcd
#
# Track frame offsets: 
#        150
#        15852
#        32872
#        51651
#        62948
#        78478
#        96353
#
# Disc length: 1483 seconds
#
# Revision: 3
# Processed by: cddbd v1.5.2PL0 Copyright (c) Steve Scherf et al.
# Submitted via: ExactAudioCopy v0.99pb4
#
DISCID=5905c907
DTITLE=Duffy - Rockferry - CD 2 Deluxe Edition
DYEAR=2008
DGENRE=Pop
TTITLE0=Rain On Your Parade
TTITLE1=Fool For You
TTITLE2=Stop
TTITLE3=Oh Boy
TTITLE4=Please Stay
TTITLE5=Breaking My Own Heart
TTITLE6=Enough Love
EXTD=Deluxe Edition With Bonus CD In Digipak.\r\n1791284
EXTT0=
EXTT1=
EXTT2=
EXTT3=
EXTT4=
EXTT5=
EXTT6=
PLAYORDER=
